<?xml version="1.0" encoding="UTF-8" standalone="no"?>
<svg
   xmlns:dc="http://purl.org/dc/elements/1.1/"
   xmlns:cc="http://creativecommons.org/ns#"
   xmlns:rdf="http://www.w3.org/1999/02/22-rdf-syntax-ns#"
   xmlns:svg="http://www.w3.org/2000/svg"
   xmlns="http://www.w3.org/2000/svg"
   viewBox="0 0 337.33334 337.33334"
   height="252"
   width="252"
   xml:space="preserve"
   id="svg2"
   version="1.1"><metadata
     id="metadata8"><rdf:RDF><cc:Work
         rdf:about=""><dc:format>image/svg+xml</dc:format><dc:type
           rdf:resource="http://purl.org/dc/dcmitype/StillImage" /></cc:Work></rdf:RDF></metadata><defs
     id="defs6"><clipPath
       id="clipPath18"
       clipPathUnits="userSpaceOnUse"><path
         id="path16"
         d="M 0,253 H 253 V 0 H 0 Z" /></clipPath></defs><g
     transform="matrix(1.3333333,0,0,-1.3333333,0,337.33333)"
     id="g10"><g
       id="g12"><g
         clip-path="url(#clipPath18)"
         id="g14"><g
           transform="translate(126.5,15.7842)"
           id="g20"><path
             id="path22"
             style="fill:#d22856;fill-opacity:1;fill-rule:nonzero;stroke:none"
             d="m 0,0 c -60.844,0 -110.167,49.323 -110.167,110.167 0,60.844 49.323,110.167 110.167,110.167 60.843,0 110.167,-49.323 110.167,-110.167 C 110.167,49.323 60.843,0 0,0 m 0,237.216 c -69.864,0 -126.5,-56.636 -126.5,-126.5 0,-69.864 56.636,-126.5 126.5,-126.5 69.864,0 126.5,56.636 126.5,126.5 0,69.864 -56.636,126.5 -126.5,126.5" /></g></g></g></g></svg>